<svg width="12" height="9" viewBox="0 0 12 9" fill="none" xmlns="http://www.w3.org/2000/svg">
<path fill-rule="evenodd" clip-rule="evenodd" d="M11.7818 1.24268L10.7292 0.212717C10.5847 0.0711581 10.4092 0.000527024 10.2029 0.000527024C9.99652 0.000527024 9.82098 0.0711581 9.67644 0.212717L4.59892 5.18911L2.32338 2.95453C2.17884 2.81296 2.00341 2.74233 1.79706 2.74233C1.59062 2.74233 1.41518 2.81296 1.27063 2.95453L0.218014 3.9845C0.07359 4.12606 0.00125206 4.29772 0.00125206 4.49978C0.00125206 4.70154 0.07359 4.8732 0.218014 5.01447L3.01986 7.75628L4.07261 8.78625C4.21703 8.92781 4.39259 8.99844 4.59892 8.99844C4.80525 8.99844 4.98081 8.92781 5.12524 8.78625L6.17798 7.75628L11.7818 2.27265C11.9262 2.13139 11.9986 1.95973 11.9986 1.75767C11.9986 1.55591 11.9262 1.38424 11.7818 1.24268Z" fill="white"/>
</svg>
