<svg 
 xmlns="http://www.w3.org/2000/svg"
 xmlns:xlink="http://www.w3.org/1999/xlink"
 width="12px" height="12px">
<path fill-rule="evenodd"  fill="rgb(255, 255, 255)"
 d="M11.223,0.776 C10.190,-0.260 8.510,-0.260 7.477,0.776 L0.609,7.642 C0.555,7.696 0.522,7.765 0.512,7.839 L0.003,11.608 C-0.012,11.716 0.026,11.823 0.100,11.897 C0.164,11.961 0.254,12.000 0.343,12.000 C0.359,12.000 0.374,12.000 0.389,11.997 L2.660,11.690 C2.849,11.665 2.982,11.491 2.956,11.302 C2.931,11.112 2.757,10.980 2.568,11.005 L0.747,11.251 L1.103,8.622 L3.869,11.389 C3.933,11.453 4.022,11.491 4.112,11.491 C4.201,11.491 4.291,11.455 4.355,11.389 L11.223,4.523 C11.724,4.021 12.000,3.356 12.000,2.648 C12.000,1.940 11.724,1.275 11.223,0.776 ZM7.610,1.620 L8.763,2.773 L2.496,9.041 L1.343,7.888 L7.610,1.620 ZM4.115,10.657 L2.987,9.530 L9.254,3.262 L10.381,4.389 L4.115,10.657 ZM10.862,3.896 L8.103,1.137 C8.454,0.848 8.891,0.689 9.351,0.689 C9.875,0.689 10.366,0.894 10.737,1.262 C11.108,1.630 11.310,2.124 11.310,2.648 C11.310,3.111 11.151,3.546 10.862,3.896 Z"/>
</svg>