<svg width="33" height="28" viewBox="0 0 33 28" fill="none" xmlns="http://www.w3.org/2000/svg">
<path fill-rule="evenodd" clip-rule="evenodd" d="M7.99993 1.9999H25.9999C29.3136 1.9999 31.9999 4.68625 31.9999 7.99991V21C31.9999 24.3136 29.3136 27 25.9999 27H7.99993C4.6862 27 1.99993 24.3136 1.99993 21V7.99991C1.99993 4.68625 4.6862 1.9999 7.99993 1.9999Z" fill="#10111F"/>
<path fill-rule="evenodd" clip-rule="evenodd" d="M23.6909 13.8888C23.9663 13.6286 24.0636 13.2467 23.9448 12.8916C23.8256 12.5365 23.5155 12.2831 23.1345 12.2294L19.7471 11.752C19.6029 11.7318 19.4781 11.6439 19.4137 11.5171L17.8993 8.54102C17.7293 8.2066 17.3841 7.99876 16.9996 7.99876C16.6152 7.99876 16.27 8.2066 16.0999 8.54102L14.5853 11.5174C14.5209 11.6443 14.3959 11.732 14.2516 11.7524L10.8642 12.2296C10.4835 12.2831 10.173 12.537 10.054 12.8919C9.93525 13.2469 10.0324 13.6288 10.3079 13.8891L12.7587 16.2056C12.8632 16.3045 12.9112 16.4469 12.8866 16.586L12.3083 19.8571C12.257 20.145 12.335 20.4251 12.5271 20.6459C12.8257 20.9901 13.3471 21.0949 13.7639 20.8824L16.7933 19.3379C16.9199 19.2736 17.0793 19.2741 17.2057 19.3379L20.2354 20.8824C20.3828 20.9578 20.5399 20.9956 20.7021 20.9956C20.9982 20.9956 21.2789 20.868 21.4719 20.6459C21.6644 20.4251 21.742 20.1444 21.6907 19.8571L21.1122 16.586C21.0876 16.4466 21.1355 16.3045 21.24 16.2056L23.6909 13.8888Z" fill="#42456C"/>
</svg>
