<svg width="33" height="28" viewBox="0 0 33 28" fill="none" xmlns="http://www.w3.org/2000/svg">
<path fill-rule="evenodd" clip-rule="evenodd" d="M7.99993 1.99998H25.9999C29.3136 1.99998 31.9999 4.68622 31.9999 7.99999V20.9999C31.9999 24.3137 29.3136 27 25.9999 27H7.99993C4.6862 27 1.99993 24.3137 1.99993 20.9999V7.99999C1.99993 4.68622 4.6862 1.99998 7.99993 1.99998Z" fill="#E7A70C"/>
<path fill-rule="evenodd" clip-rule="evenodd" d="M23.6909 13.8888C23.9663 13.6286 24.0636 13.2466 23.9448 12.8916C23.8256 12.5366 23.5155 12.2832 23.1345 12.2294L19.7471 11.752C19.6029 11.7317 19.4781 11.644 19.4137 11.5171L17.8993 8.54099C17.7293 8.20665 17.3841 7.99883 16.9996 7.99883C16.6152 7.99883 16.27 8.20665 16.0999 8.54099L14.5853 11.5174C14.5209 11.6443 14.3959 11.7319 14.2516 11.7524L10.8642 12.2297C10.4835 12.2832 10.173 12.5369 10.054 12.8918C9.93525 13.2469 10.0324 13.6288 10.3079 13.889L12.7587 16.2057C12.8632 16.3045 12.9112 16.4469 12.8866 16.586L12.3083 19.857C12.257 20.1451 12.335 20.4251 12.5271 20.6459C12.8257 20.9901 13.3471 21.0949 13.7639 20.8825L16.7933 19.3379C16.9199 19.2735 17.0793 19.2741 17.2057 19.3379L20.2354 20.8825C20.3828 20.9577 20.5399 20.9957 20.7021 20.9957C20.9982 20.9957 21.2789 20.868 21.4719 20.6459C21.6644 20.4251 21.742 20.1444 21.6907 19.857L21.1122 16.586C21.0876 16.4467 21.1355 16.3045 21.24 16.2057L23.6909 13.8888Z" fill="white"/>
</svg>
