<svg 
 xmlns="http://www.w3.org/2000/svg"
 xmlns:xlink="http://www.w3.org/1999/xlink"
 width="14px" height="14px">
<path fill-rule="evenodd"  fill="rgb(255, 255, 255)"
 d="M13.878,13.286 L10.475,9.884 C11.388,8.834 11.941,7.465 11.941,5.969 C11.941,2.676 9.262,-0.000 5.970,-0.000 C2.676,-0.000 -0.000,2.679 -0.000,5.969 C-0.000,9.260 2.679,11.939 5.970,11.939 C7.467,11.939 8.836,11.386 9.886,10.474 L13.288,13.875 C13.369,13.956 13.478,14.000 13.583,14.000 C13.689,14.000 13.798,13.959 13.878,13.875 C14.040,13.714 14.040,13.447 13.878,13.286 ZM0.835,5.969 C0.835,3.138 3.139,0.838 5.967,0.838 C8.799,0.838 11.100,3.141 11.100,5.969 C11.100,8.797 8.799,11.103 5.967,11.103 C3.139,11.103 0.835,8.800 0.835,5.969 Z"/>
</svg>