<?xml version="1.0" standalone="no"?>
<!DOCTYPE svg PUBLIC "-//W3C//DTD SVG 1.1//EN" "http://www.w3.org/Graphics/SVG/1.1/DTD/svg11.dtd" >
<svg xmlns="http://www.w3.org/2000/svg">
<metadata>Generated by IcoMoon</metadata>
<defs>
<font id="icomoon" horiz-adv-x="1024">
<font-face units-per-em="1024" ascent="960" descent="-64" />
<missing-glyph horiz-adv-x="1024" />
<glyph unicode="&#x20;" horiz-adv-x="512" d="" />
<glyph unicode="&#xe900;" glyph-name="play" horiz-adv-x="1025" d="M681.468 468.042l-212.738 154.645c-4.179 3.074-9.427 4.919-15.107 4.919-14.152 0-25.629-11.459-25.656-25.605v-309.231c0-0.018 0-0.039 0-0.060 0-14.126 11.451-25.577 25.577-25.577 5.716 0 10.995 1.875 15.254 5.044l-0.068-0.048 212.738 154.535c6.462 4.678 10.617 12.198 10.617 20.689s-4.155 16.010-10.542 20.638l-0.074 0.051zM512.489 960.237c-282.88-0.027-512.189-229.353-512.189-512.237 0-282.9 229.336-512.237 512.237-512.237 282.873 0 512.192 229.291 512.236 512.154v0.004c0 0.018 0 0.041 0 0.063 0 282.909-229.343 512.252-512.252 512.252-0.011 0-0.022 0-0.033 0h0.001zM512.489 21.278c-0.023 0-0.051 0-0.079 0-235.672 0-426.722 191.050-426.722 426.722s191.050 426.722 426.722 426.722c235.672 0 426.722-191.050 426.722-426.722 0-0.028 0-0.056 0-0.083v0.004c0-235.628-191.015-426.643-426.643-426.643v0z" />
<glyph unicode="&#xe901;" glyph-name="chart" horiz-adv-x="1188" d="M79.462 153.088v-195.461c0-0.025 0-0.054 0-0.083 0-11.917 9.603-21.592 21.493-21.708h148.901c11.901 0.116 21.504 9.79 21.504 21.708 0 0.029 0 0.058 0 0.087v-0.004 343.818l-108.216-109.732c-21.55-21.891-50.745-36.201-83.252-38.6l-0.43-0.025zM345.702 303.944v-346.317c0-0.037 0-0.080 0-0.124 0-11.895 9.585-21.551 21.452-21.667h148.942c11.901 0.116 21.504 9.79 21.504 21.708 0 0.029 0 0.058 0 0.087v-0.004 203.858c-35.172 0.693-66.789 15.354-89.642 38.646l-0.020 0.020zM611.942 183.030v-225.28c0-0.037 0-0.080 0-0.123 0-11.909 9.608-21.575 21.496-21.667h148.899c11.896 0.093 21.504 9.758 21.504 21.667 0 0.043 0 0.087 0 0.13v-0.007 415.949l-170.721-173.138c-6.272-6.4-13.191-12.122-20.664-17.074l-0.471-0.293zM1055.785 629.166l-177.603-180.224v-491.52c0-0.025 0-0.054 0-0.083 0-11.917 9.603-21.592 21.493-21.708h148.901c11.879 0.116 21.463 9.772 21.463 21.667 0 0.044 0 0.087 0 0.131v-0.007 658.268c-4.874 4.096-8.52 7.946-11.223 10.404zM1177.641 948.204c-7.426 7.249-17.591 11.721-28.801 11.721-0.949 0-1.89-0.032-2.823-0.095l0.126 0.007h-3.891c-69.386-3.236-138.527-6.676-207.872-9.912-0.744 0.044-1.615 0.070-2.491 0.070-11.356 0-21.72-4.252-29.585-11.25l0.045 0.039c-6.532-6.773-10.556-16.003-10.556-26.173 0-11.812 5.429-22.356 13.928-29.274l0.069-0.054 17.326-17.818c11.96-12.288 24.207-24.781 36.413-36.864l-419.185-425.288-188.416 190.956c-10.82 11.016-25.869 17.847-42.514 17.859h-0.002c-16.571-0.003-31.545-6.84-42.258-17.845l-0.013-0.013-250.839-253.952c-10.86-11.073-17.563-26.258-17.563-43.008s6.703-31.935 17.573-43.018l-0.010 0.010 11.223-11.387c10.76-11.026 25.768-17.864 42.373-17.864s31.613 6.838 42.362 17.852l0.012 0.012 197.14 199.885 188.416-190.956c10.805-11.029 25.852-17.866 42.496-17.866s31.691 6.837 42.486 17.856l0.010 0.010 472.924 479.519 53.494-53.985c6.827-8.665 16.995-14.434 28.531-15.351l0.141-0.009c6.316 0.073 12.211 1.813 17.285 4.799l-0.163-0.089c3.908 2.178 7.274 4.722 10.244 7.663l-0.004-0.004c8.039 8.936 12.955 20.82 12.955 33.853 0 0.382-0.004 0.763-0.013 1.143l0.001-0.057c1.966 45.588 4.096 91.177 6.349 136.97l3.277 68.649c0.206 1.582 0.324 3.413 0.324 5.27 0 10.789-3.969 20.652-10.527 28.206l0.045-0.053z" />
<glyph unicode="&#xe902;" glyph-name="concept" horiz-adv-x="1059" d="M646.886 337.161c92.349 38.352 156.11 127.816 156.11 232.173 0 1.549-0.014 3.095-0.042 4.638l0.003-0.232c-8.295 144.479-127.483 258.501-273.302 258.501s-265.006-114.022-273.269-257.77l-0.034-0.731c-0.025-1.311-0.039-2.857-0.039-4.406 0-104.357 63.761-193.822 154.452-231.561l1.659-0.612 2.119-1.165 14.477-23.799c-16.25-9.648-26.972-27.106-26.972-47.068 0-9.965 2.672-19.306 7.338-27.345l-0.14 0.261c2.113-3.595 4.448-6.706 7.090-9.528l-0.028 0.030c-8.872-9.665-14.309-22.606-14.309-36.817 0-15.965 6.862-30.326 17.797-40.297l0.043-0.039c9.535-8.758 22.305-14.126 36.328-14.126 0.139 0 0.277 0.001 0.416 0.002h145.811c0.136-0.001 0.298-0.002 0.459-0.002 29.974 0 54.272 24.298 54.272 54.272 0 0.038 0 0.076 0 0.114v-0.006c0.005 0.259 0.007 0.565 0.007 0.871 0 13.974-5.372 26.693-14.164 36.205l0.033-0.036c8.819 9.647 14.222 22.546 14.222 36.708 0 15.749-6.683 29.938-17.367 39.885l-0.033 0.030c-2.788 2.651-5.915 4.991-9.297 6.936l-0.237 0.126 14.477 23.799zM602.394 173.709h-145.832c-10.102 0-18.291 8.189-18.291 18.291s8.189 18.291 18.291 18.291v0h145.832c10.102 0 18.291-8.189 18.291-18.291s-8.189-18.291-18.291-18.291v0zM602.394 246.872h-145.832c-9.75 0.442-17.487 8.454-17.487 18.273s7.737 17.831 17.448 18.272l0.040 0.001h145.832c10.131 0 18.344-8.213 18.344-18.344s-8.213-18.344-18.344-18.344v0zM630.29 369.752l-7.415-3.955c-2.779-1.613-5.043-3.832-6.662-6.486l-0.047-0.082-24.011-39.23h-7.768v138.593l85.804 86.087-25.777 25.847-91.101-91.418c-3.271-3.207-5.299-7.672-5.299-12.611 0-0.11 0.001-0.22 0.003-0.329v0.016-146.291h-36.723v146.291c0.002 0.093 0.003 0.203 0.003 0.313 0 4.939-2.028 9.404-5.296 12.608l-0.003 0.003-91.101 91.418-25.777-25.847 85.804-86.051v-138.734h-8.121l-23.658 39.23c-1.791 2.743-4.167 4.96-6.962 6.517l-0.1 0.051-7.062 3.955c-0.696 0.278-1.277 0.562-1.834 0.884l0.068-0.036c-79.565 32.723-134.565 109.634-134.565 199.39 0 1.306 0.012 2.61 0.035 3.911l-0.003-0.196c8.558 124.146 111.363 221.611 236.932 221.611s228.374-97.465 236.891-220.871l0.041-0.74c0.020-1.105 0.032-2.409 0.032-3.715 0-89.756-54.999-166.667-133.135-198.868l-1.43-0.522c-0.706-0.177-1.059-0.424-1.766-0.742zM138.77 797.361l16.243 32.697 109.462-54.837-16.596-32.697zM790.599 784.225l116.171 38.841 11.299-34.675-115.818-38.841zM73.799 594.291h109.462v-36.582h-109.462v36.582zM876.050 594.291h109.462v-36.582h-109.462v36.582zM138.77 318.093l109.109 54.837 16.596-32.697-109.462-54.837zM794.836 340.162l16.243 32.733 109.462-54.872-16.243-32.697zM511.294 960h36.723v-91.418h-36.723v91.418zM1058.251 100.582v36.687c-237.639 0-490.461-57.697-492.226-164.582h-72.739c-1.766 106.884-254.588 164.582-492.226 164.582v-36.582c266.946 0 453.385-67.090 455.503-128h-455.503v-36.687h1057.192v36.582h-455.503c2.119 60.769 188.557 128 455.503 128zM0 9.163l1.766 36.511 346.748-18.291-2.119-36.546zM710.797 27.383l346.748 18.326 1.766-36.511-346.394-18.361z" />
<glyph unicode="&#xe903;" glyph-name="shield" horiz-adv-x="832" d="M416 880c-0.057 0.001-0.124 0.001-0.192 0.001-11.028 0-19.968-8.94-19.968-19.968s8.94-19.968 19.968-19.968c11.016 0 19.949 8.921 19.968 19.933v0.002c0 0.048 0.001 0.104 0.001 0.16 0 10.935-8.847 19.804-19.773 19.84h-0.003zM812.192 840c-54.768 0.326-99.041 44.8-99.041 99.614 0 0.136 0 0.271 0.001 0.407v-0.021c0 0.019 0 0.042 0 0.064 0 10.965-8.853 19.863-19.801 19.936h-554.695c-10.951-0.054-19.808-8.945-19.808-19.904 0-0.034 0-0.068 0-0.101v0.005c0-0.115 0.001-0.25 0.001-0.386 0-54.814-44.272-99.288-99.010-99.614h-0.031c-10.951-0.054-19.808-8.945-19.808-19.904 0-0.034 0-0.068 0-0.101v0.005-326.4c-0.002-0.577-0.003-1.259-0.003-1.942 0-259.836 170.768-479.787 406.196-553.744l4.111-1.114c1.705-0.528 3.665-0.832 5.696-0.832s3.991 0.304 5.837 0.87l-0.141-0.037c239.539 75.070 410.307 295.021 410.307 554.858 0 0.694-0.001 1.389-0.004 2.082v-0.108 326.4c0 0.019 0 0.042 0 0.064 0 10.959-8.857 19.849-19.803 19.904h-0.005zM792.384 493.632c0.010-1.204 0.015-2.628 0.015-4.053 0-239.291-156.424-442.048-372.596-511.594l-3.803-1.057c-220.103 71.62-376.387 274.949-376.387 514.781 0 0.676 0.001 1.352 0.004 2.027v-0.104 307.808c61.043 9.466 108.557 57.36 117.35 117.806l0.090 0.754h517.888c8.883-61.2 56.397-109.094 116.656-118.46l0.784-0.1v-307.808zM740.896 775.040c-41.463 18.639-73.856 51.313-91.677 91.843l-0.451 1.149c-3.104 7.091-10.054 11.957-18.143 11.968h-135.425c-11.046 0-20-8.954-20-20s8.954-20 20-20v0h122.912c21.166-41.45 53.855-74.448 93.84-95.426l1.2-0.574v-250.432c0.018-1.513 0.028-3.3 0.028-5.090 0-194.707-122.178-360.877-294.049-426.028l-3.131-1.042c-175.003 66.193-297.181 232.364-297.181 427.071 0 1.812 0.011 3.621 0.032 5.428l-0.003-0.275v250.432c41.179 21.561 73.865 54.556 94.466 94.767l0.574 1.233h122.912c11.046 0 20 8.954 20 20s-8.954 20-20 20v0h-135.424c-8.090-0.011-15.040-4.877-18.094-11.841l-0.050-0.127c-18.272-41.679-50.665-74.353-90.998-92.536l-1.13-0.456c-7.055-3.212-11.872-10.201-11.872-18.315 0-0.007 0-0.014 0-0.022v0.001-263.072c-0.009-1.107-0.014-2.415-0.014-3.725 0-214.785 136.065-397.79 326.701-467.521l3.457-1.106c1.946-0.71 4.192-1.12 6.534-1.12 0.032 0 0.063 0 0.095 0h-0.005c0.038 0 0.084 0 0.129 0 2.318 0 4.539 0.411 6.596 1.163l-0.133-0.043c194.108 70.817 330.19 253.825 330.19 468.616 0 1.314-0.005 2.626-0.015 3.938l0.001-0.201v263.072c-0.018 8.097-4.83 15.066-11.746 18.221l-0.126 0.051zM416 668c-0.514 0.005-1.12 0.008-1.728 0.008-99.411 0-180-80.589-180-180s80.589-180 180-180c99.408 0 179.995 80.584 180 179.991v0c0.001 0.238 0.002 0.52 0.002 0.802 0 98.644-79.703 178.672-178.223 179.197h-0.050zM416 348c-0.4-0.004-0.871-0.006-1.344-0.006-77.32 0-140 62.68-140 140s62.68 140 140 140c77.318 0 139.996-62.677 140-139.993v0c0.001-0.153 0.001-0.334 0.001-0.514 0-76.745-61.978-139.014-138.612-139.485h-0.045zM509.248 542.144c-3.575 3.614-8.534 5.851-14.016 5.851s-10.441-2.238-14.014-5.85l-0.002-0.002-85.024-85.856-25.6 25.856c-3.575 3.614-8.534 5.851-14.016 5.851s-10.441-2.238-14.014-5.85l-0.002-0.002c-3.59-3.633-5.807-8.63-5.807-14.144s2.217-10.511 5.809-14.146l-0.002 0.002 39.616-40c3.575-3.614 8.534-5.851 14.016-5.851s10.441 2.238 14.014 5.85l0.002 0.002 99.040 100c3.59 3.633 5.807 8.63 5.807 14.144s-2.217 10.511-5.809 14.146l0.002-0.002z" />
<glyph unicode="&#xe904;" glyph-name="cheveron-down" d="M475.802 309.76l36.198-36.198 289.638 289.638-72.397 72.397-217.242-217.19-217.242 217.19-72.397-72.397z" />
<glyph unicode="&#xe905;" glyph-name="cheveron-right" d="M663.040 424.602l36.198 36.198-289.638 289.638-72.397-72.397 217.19-217.242-217.19-217.242 72.397-72.397 253.44 253.44z" />
<glyph unicode="&#xe906;" glyph-name="search" d="M660.48 239.616c-68.622-53.712-156.164-86.131-251.277-86.131-226.216 0-409.6 183.384-409.6 409.6s183.384 409.6 409.6 409.6c226.216 0 409.6-183.384 409.6-409.6 0-95.113-32.419-182.654-86.809-252.177l0.678 0.9 273.92-272.896-72.704-72.704-272.896 273.408zM409.6 256c169.662 0 307.2 137.538 307.2 307.2s-137.538 307.2-307.2 307.2v0c-169.662 0-307.2-137.538-307.2-307.2s137.538-307.2 307.2-307.2v0z" />
<glyph unicode="&#xe907;" glyph-name="cheveron-left" d="M360.96 496.998l-36.198-36.198 289.638-289.638 72.397 72.397-217.19 217.242 217.19 217.242-72.397 72.397z" />
<glyph unicode="&#xe908;" glyph-name="cheveron-up" d="M548.198 611.84l-36.198 36.198-289.638-289.638 72.397-72.397 217.242 217.19 217.242-217.19 72.397 72.397z" />
<glyph unicode="&#xe909;" glyph-name="edit" horiz-adv-x="1027" d="M959.92 896.262c-40.91 41.018-97.485 66.396-159.987 66.396s-119.076-25.378-159.982-66.391l-587.763-587.421c-4.397-4.54-7.457-10.399-8.53-16.926l-0.025-0.185-43.633-322.54c-0.071-0.806-0.112-1.744-0.112-2.691 0-8.523 3.297-16.276 8.685-22.053l-0.018 0.019c5.189-5.282 12.407-8.556 20.39-8.556 0.050 0 0.1 0 0.15 0h-0.008c0.641-0.061 1.386-0.096 2.139-0.096s1.498 0.035 2.233 0.103l-0.094-0.007 194.208 26.265c14.582 1.97 25.704 14.338 25.704 29.302 0 16.322-13.232 29.554-29.554 29.554-1.357 0-2.694-0.092-4.002-0.269l0.153 0.017-155.709-21.046 29.944 224.922 236.986-236.729c5.189-5.282 12.407-8.556 20.39-8.556 0.050 0 0.1 0 0.15 0h-0.008c0.128-0.002 0.278-0.003 0.429-0.003 7.894 0 15.022 3.279 20.095 8.55l0.008 0.009 587.758 587.416c41.321 40.946 66.905 97.714 66.905 160.457s-25.584 119.511-66.888 160.441l-0.017 0.017zM651.069 824.054l98.388-98.644-535.57-536.255-99.243 98.644zM351.628 50.899l-95.821 96.42 535.57 536.255 96.676-96.505zM929.12 629.332l-236.13 236.044c28.935 24.417 66.644 39.258 107.818 39.258 92.611 0 167.687-75.076 167.687-167.687 0-41.239-14.886-79.001-39.579-108.205l0.204 0.247z" />
<glyph unicode="&#xe90a;" glyph-name="money" d="M1023.814 347.089c0 135.913-56.041 313.53-211.875 377.391v68.143l46.359 37.050c4.095 3.208 6.703 8.154 6.703 13.709 0 0.024 0 0.048 0 0.072v-0.004 98.863c0 9.768-7.919 17.687-17.687 17.687v0h-52.876c-0.031 0-0.068 0-0.105 0-4.905 0-9.345-1.993-12.555-5.213l-22.715-22.715-22.9 22.714c-3.144 3.218-7.527 5.213-12.376 5.213-0.035 0-0.069 0-0.104 0h-70.558c-4.878-0.012-9.288-2.003-12.473-5.212l-0.001-0.001-22.9-22.714-22.714 22.714c-3.186 3.21-7.596 5.201-12.472 5.213h-53.064c-9.668-0.010-17.502-7.85-17.502-17.52 0-0.059 0-0.118 0.001-0.177v0.009-98.863c0-0.009 0-0.019 0-0.029 0-5.528 2.525-10.466 6.486-13.724l46.39-37.075v-68.143c-155.834-63.86-211.875-241.664-211.875-377.391-0.011-0.931-0.017-2.032-0.017-3.133 0-32.512 5.39-63.766 15.326-92.916l-0.6 2.027c-7.633 0.559-15.267 0.745-22.9 0.745h-44.684c-0.063 9.743-7.944 17.624-17.681 17.687h-141.318c-9.681-0.074-17.501-7.939-17.501-17.631 0-0.020 0-0.040 0-0.059v0.003h-123.625v-35.375h123.625v-176.5h-123.625v-35.375h123.625c0-0.006 0-0.012 0-0.019 0-9.655 7.827-17.482 17.482-17.482 0.007 0 0.013 0 0.020 0h141.311c0.017 0 0.037 0 0.056 0 9.692 0 17.557 7.82 17.631 17.494v6.896l131.817-54.737c34.167-14.394 73.885-22.757 115.556-22.757 39.184 0 76.641 7.395 111.051 20.865l-2.072-0.714 272.756 104.076c24.603 9.687 41.7 33.243 41.7 60.793 0 16.997-6.507 32.473-17.166 44.075l0.043-0.047c43.417 44.261 70.215 104.96 70.215 171.918 0 3.576-0.076 7.134-0.228 10.673l0.017-0.505zM264.751 24.25h-105.937v211.875h105.937v-211.875zM547.188 852.015v72.611h28.113l29.975-29.975c3.155-3.273 7.577-5.307 12.474-5.307s9.32 2.033 12.469 5.301l0.005 0.005 30.161 29.975h56.041l30.161-29.975c3.155-3.273 7.577-5.307 12.474-5.307s9.32 2.033 12.469 5.301l0.005 0.005 30.161 29.975h27.927v-72.611l-41.519-33.327h-199.401zM776.751 783.5v-53.062h-176.5v53.062h176.5zM932.957 108.777c-3.206-7.198-9.007-12.757-16.184-15.57l-0.2-0.069-272.756-104.076c-28.638-11.281-61.806-17.82-96.502-17.82-36.833 0-71.944 7.37-103.94 20.715l1.786-0.66-145.036 60.323v166.819h44.684c61.469-0.008 119.515-14.657 170.843-40.65l-2.162 0.993c16.153-8.333 35.254-13.219 55.497-13.219 0.060 0 0.121 0 0.181 0h136.834c14.589-0.071 26.387-11.914 26.387-26.512 0-12.484-8.629-22.954-20.248-25.768l-0.181-0.037c-2.42-0.186-4.655-0.745-6.889-0.745h-210.758v-35.188h212.806c14.794 0.308 28.764 3.497 41.483 9.025l-0.709-0.274 147.642 62.557c3.241 1.413 7.017 2.235 10.985 2.235s7.744-0.822 11.167-2.305l-0.182 0.070c7.326-3.089 12.982-8.927 15.76-16.188l0.066-0.196c1.343-3.342 2.123-7.217 2.123-11.274 0-4.403-0.918-8.591-2.573-12.385l0.078 0.2zM922.345 183.994c-4.854 1.335-10.427 2.102-16.179 2.102-8.81 0-17.2-1.8-24.822-5.052l0.413 0.157-114.502-48.593c0.355 1.924 0.559 4.138 0.559 6.399 0 0.041 0 0.083 0 0.124v-0.006c0 0.011 0 0.024 0 0.037 0 34.117-27.658 61.775-61.775 61.775-0.013 0-0.026 0-0.039 0h-136.842c-0.038 0-0.083 0-0.129 0-14.469 0-28.135 3.439-40.226 9.543l0.512-0.234c-35.288 17.988-76.249 31.46-119.431 38.238l-2.332 0.301c-12.145 27.786-19.212 60.164-19.212 94.192 0 1.446 0.013 2.889 0.038 4.328l-0.003-0.217c0 126.976 51.945 293.795 197.725 348.16h204.8c145.78-54.365 197.539-221.184 197.539-348.16 0.158-3.040 0.248-6.6 0.248-10.181 0-60.275-25.467-114.602-66.228-152.808l-0.114-0.106zM194.188 94.999h35.375v-35.375h-35.375v35.375zM725.923 454.144l-63.86 21.225c-5.289 1.782-9.030 6.696-9.030 12.484 0 1.461 0.238 2.866 0.678 4.179l-0.027-0.093c1.807 5.284 6.691 9.033 12.463 9.123h44.508c0 0 0.001 0 0.001 0 7.198 0 13.033-5.835 13.033-13.033 0-0.065 0-0.131-0.001-0.196v0.010-11.543h35.375v11.543c0 26.735-21.673 48.407-48.407 48.407v0h-4.655v35.375h-35.188v-35.375h-4.655c-0.045 0-0.099 0-0.152 0-26.735 0-48.407-21.673-48.407-48.407 0-21.33 13.796-39.438 32.951-45.887l0.341-0.1 63.86-21.225c5.409-1.667 9.273-6.622 9.273-12.479 0-7.198-5.835-13.033-13.033-13.033-0.118 0-0.236 0.002-0.353 0.005h-44.48c-7.198 0-13.033 5.835-13.033 13.033v0 11.543h-35.375v-11.543c0.084-26.701 21.707-48.323 48.399-48.407h4.663v-35.375h35.188v35.375h4.655c0.045 0 0.099 0 0.152 0 26.735 0 48.407 21.673 48.407 48.407 0 21.33-13.796 39.438-32.951 45.887l-0.341 0.1zM688.5 642.188c-107.247 0-194.188-86.941-194.188-194.188s86.941-194.188 194.188-194.188c107.247 0 194.188 86.941 194.188 194.188v0c0 107.247-86.941 194.188-194.188 194.188v0zM688.5 289.187c-0.028 0-0.060 0-0.093 0-87.761 0-158.906 71.145-158.906 158.906s71.145 158.906 158.906 158.906c87.761 0 158.906-71.145 158.906-158.906 0-0.033 0-0.065 0-0.098v0.005c-0.032-87.697-71.116-158.781-158.81-158.813h-0.003z" />
<glyph unicode="&#xe90b;" glyph-name="monitor" horiz-adv-x="933" d="M823.79 756.663h-36.352c-8.382 0-15.177-6.795-15.177-15.177s6.795-15.177 15.177-15.177v0h36.352c43.632-0.444 78.831-35.917 78.831-79.612 0-0.169-0.001-0.337-0.002-0.505v0.026-440.869c0.001-0.175 0.002-0.381 0.002-0.588 0-43.673-35.213-79.122-78.796-79.503h-715.007c-43.611 0.392-78.814 35.837-78.814 79.503 0 0.207 0.001 0.413 0.002 0.62v-0.032 345.234c0 8.271-6.705 14.976-14.976 14.976s-14.976-6.705-14.976-14.976v0-345.234c-0.002-0.219-0.002-0.477-0.002-0.736 0-60.26 48.582-109.173 108.715-109.71h218.181v-54.674c-45.597-4.15-81.044-42.197-81.044-88.523 0-0.186 0.001-0.371 0.002-0.557v0.028c0-0.033 0-0.071 0-0.11 0-8.29 6.694-15.016 14.971-15.067h410.812c8.282 0.052 14.976 6.778 14.976 15.067 0 0.039 0 0.077 0 0.116v-0.006c0.001 0.152 0.001 0.331 0.001 0.511 0 46.33-35.445 84.381-80.697 88.515l-0.347 0.026v54.674h218.149c60.2 0.516 108.802 49.438 108.802 109.71 0 0.259-0.001 0.517-0.003 0.775v-0.040 440.869c0.002 0.219 0.002 0.477 0.002 0.735 0 60.267-48.592 109.184-108.734 109.71h-0.050zM356.919 94.903h218.734v-54.491h-218.734v54.491zM654.738-33.646h-376.923c6.612 25.219 29.131 43.548 55.955 43.703h265.015c26.837-0.157 49.349-18.487 55.864-43.298l0.090-0.405zM416.457 456.229c-87.331-0.775-157.827-71.749-157.827-159.19 0-0.349 0.001-0.698 0.003-1.047v0.054c0-0.043 0-0.093 0-0.144 0-29.024 7.622-56.268 20.973-79.84l-0.42 0.806c2.565-4.613 7.41-7.683 12.972-7.683 2.746 0 5.318 0.748 7.521 2.052l-0.069-0.038c4.56 2.746 7.563 7.671 7.563 13.296 0 2.773-0.73 5.375-2.007 7.626l0.040-0.077c-10.458 18.408-16.622 40.437-16.622 63.907 0 0.033 0 0.066 0 0.099v-0.005c-0.006 0.455-0.009 0.991-0.009 1.529 0 70.622 57.25 127.872 127.872 127.872s127.872-57.25 127.872-127.872c0-0.538-0.003-1.074-0.010-1.61l0.001 0.081c0-0.005 0-0.010 0-0.015 0-23.557-6.163-45.675-16.965-64.829l0.343 0.661c-1.223-2.15-1.943-4.723-1.943-7.464 0-5.596 3.004-10.491 7.487-13.16l0.070-0.039c2.104-1.212 4.617-1.951 7.297-2.011h0.018c0.002 0 0.004 0 0.005 0 5.573 0 10.43 3.067 12.975 7.605l0.039 0.075c12.92 22.757 20.535 49.99 20.535 79.001 0 0.062 0 0.124 0 0.186v-0.010c0.002 0.301 0.003 0.656 0.003 1.012 0 87.398-70.436 158.345-157.639 159.17l-0.078 0.001zM669.769 197.12h-560.987c-4.471 0.031-8.083 3.662-8.083 8.137 0 0.032 0 0.064 0.001 0.096v-0.005 440.869c0.019 4.486 3.609 8.126 8.073 8.228h57.628c8.382 0 15.177 6.795 15.177 15.177s-6.795 15.177-15.177 15.177v0h-57.563c-21.050-0.207-38.035-17.319-38.035-38.398 0-0.065 0-0.13 0-0.195v0.010-440.869c-0.001-0.093-0.001-0.202-0.001-0.312 0-21.054 17-38.137 38.023-38.271h561c8.37 0.016 15.15 6.805 15.15 15.177 0 8.382-6.795 15.177-15.177 15.177-0.010 0-0.019 0-0.029 0h0.001zM838.583 681.691c-1.722 0.753-3.728 1.191-5.837 1.191-6.187 0-11.493-3.77-13.747-9.138l-0.037-0.098c-0.755-1.75-1.194-3.787-1.194-5.927 0-6.218 3.708-11.57 9.034-13.965l0.097-0.039c2.947-1.262 4.974-4.137 4.974-7.485 0-0.004 0-0.009 0-0.013v0.001-440.869c0-0.022 0-0.048 0-0.073 0-4.485-3.62-8.124-8.098-8.155h-104.067c-8.382 0-15.177-6.795-15.177-15.177s6.795-15.177 15.177-15.177v0h104.064c21.045 0.134 38.054 17.226 38.054 38.29 0 0.103 0 0.206-0.001 0.309v-0.016 440.869c0 0.057 0 0.125 0 0.193 0 15.729-9.457 29.249-22.995 35.185l-0.247 0.096zM654.866 774.949c-0.74 0.012-1.612 0.019-2.487 0.019-88.527 0-160.293-71.765-160.293-160.293s71.765-160.293 160.293-160.293c88.527 0 160.293 71.765 160.293 160.293 0 0.032 0 0.064 0 0.096v-0.005c0.002 0.295 0.003 0.644 0.003 0.993 0 87.434-70.486 158.404-157.734 159.189l-0.075 0.001zM654.866 484.937c-0.587-0.010-1.28-0.015-1.975-0.015-71.702 0-129.829 58.126-129.829 129.829s58.126 129.829 129.829 129.829c71.697 0 129.82-58.118 129.829-129.813v-0.001c0.002-0.262 0.003-0.572 0.003-0.882 0-70.833-57.111-128.327-127.798-128.946h-0.059zM454.656 862.171c-2.29 5.466-7.597 9.236-13.784 9.236-2.109 0-4.115-0.438-5.933-1.228l0.096 0.037c-5.431-2.431-9.146-7.787-9.146-14.011 0-2.137 0.438-4.172 1.229-6.020l-0.038 0.1c5.986-14.26 9.463-30.833 9.463-48.219 0-70.46-57.119-127.579-127.579-127.579s-127.579 57.119-127.579 127.579c0 70.46 57.119 127.579 127.579 127.579 0.106 0 0.212 0 0.318 0h-0.016c39.773-0.085 75.24-18.443 98.465-47.122l0.187-0.238c2.76-3.347 6.908-5.464 11.55-5.464 3.644 0 6.983 1.304 9.575 3.472l-0.024-0.019c3.339 2.832 5.444 7.031 5.444 11.722 0 3.679-1.295 7.056-3.455 9.7l0.022-0.028c-28.878 35.695-72.678 58.329-121.764 58.331v0c-0.74 0.012-1.612 0.019-2.487 0.019-88.527 0-160.293-71.765-160.293-160.293s71.765-160.293 160.293-160.293c88.527 0 160.293 71.765 160.293 160.293 0 0.032 0 0.064 0 0.096v-0.005c0 0.097 0 0.213 0 0.328 0 22.386-4.565 43.706-12.815 63.079l0.399-1.053zM476.891 684.8h-41.947c-8.382 0-15.177-6.795-15.177-15.177s6.795-15.177 15.177-15.177v0h41.947c8.382 0 15.177 6.795 15.177 15.177s-6.795 15.177-15.177 15.177v0zM518.821 756.663h-30.939c-8.382 0-15.177-6.795-15.177-15.177s6.795-15.177 15.177-15.177v0h30.939c8.382 0 15.177 6.795 15.177 15.177s-6.795 15.177-15.177 15.177v0zM131.163 756.663h-22.418c-60.184-0.537-108.766-49.45-108.766-109.71 0-0.259 0.001-0.517 0.003-0.775v0.040-30.354c0-8.271 6.705-14.976 14.976-14.976s14.976 6.705 14.976 14.976v30.354c-0.001 0.142-0.001 0.311-0.001 0.479 0 43.688 35.189 79.158 78.77 79.612h22.461c0.003 0 0.006 0 0.009 0 8.382 0 15.177 6.795 15.177 15.177 0 8.379-6.79 15.172-15.168 15.177v0zM540.763 209.371h-248.558c-5.505 0.028-10.288 3.093-12.762 7.604l-0.038 0.076c-12.919 22.698-20.535 49.87-20.535 78.82 0 0.061 0 0.123 0 0.184v-0.009c-0.006 0.505-0.009 1.101-0.009 1.698 0 87.053 70.57 157.623 157.623 157.623s157.623-70.57 157.623-157.623c0-0.597-0.003-1.193-0.010-1.788l0.001 0.091c0-0.044 0-0.097 0-0.149 0-28.954-7.601-56.133-20.918-79.65l0.419 0.805c-2.524-4.608-7.34-7.68-12.873-7.68-0.006 0-0.013 0-0.019 0h0.001zM301.221 239.36h230.693c8.021 16.554 12.709 36.004 12.709 56.55 0 0.048 0 0.096 0 0.144v-0.008c0 70.728-57.336 128.064-128.064 128.064s-128.064-57.336-128.064-128.064v0c0-0.115-0.001-0.25-0.001-0.386 0-20.451 4.654-39.815 12.96-57.091l-0.343 0.791zM403.621 328.594c0 5.669 5.23 10.971 18.030 10.971 9.192-1.282 17.505-3.716 25.255-7.183l-0.587 0.235c6.458 1.443 11.213 7.125 11.213 13.918 0 0.379-0.015 0.754-0.044 1.125l0.003-0.049c-2.585 8.659-10.477 14.864-19.819 14.864-0.516 0-1.027-0.019-1.534-0.056l0.068 0.004v10.606c0 0.011 0 0.024 0 0.037 0 5.427-4.394 9.827-9.819 9.838h-12.051c0 0 0 0 0 0-5.423 0-9.819-4.396-9.819-9.819 0-0.019 0-0.039 0-0.058v0.003-11.52c-16.624-3.21-29.008-17.644-29.008-34.971 0-0.241 0.002-0.482 0.007-0.722l-0.001 0.036c0-42.971 57.106-39.131 57.106-61.257-1.213-7.052-7.283-12.35-14.59-12.35-1.017 0-2.009 0.103-2.968 0.298l0.095-0.016c-16.768 0-22.162 13.531-30.647 13.531-7.063-1.62-12.252-7.85-12.252-15.293 0-0.023 0-0.047 0-0.070v0.004c0-10.057 13.897-19.931 32.256-22.857v-8.777c0-0.022 0-0.048 0-0.074 0-5.456 4.377-9.89 9.811-9.983h12.059c5.443 0.092 9.82 4.526 9.82 9.983 0 0.026 0 0.052 0 0.079v-0.004 11.52c14.448 5.267 24.579 18.887 24.579 34.873 0 0.726-0.021 1.447-0.062 2.163l0.005-0.099c-0.037 46.263-57.161 42.789-57.161 61.074zM642.048 647.131c0 5.669 5.23 10.971 18.011 10.971 9.199-1.283 17.518-3.717 25.275-7.184l-0.589 0.235c6.458 1.443 11.213 7.125 11.213 13.918 0 0.379-0.015 0.754-0.044 1.125l0.003-0.049c-2.497 8.749-10.421 15.047-19.816 15.047-0.517 0-1.029-0.019-1.537-0.057l0.068 0.004v10.606c0 0.011 0 0.024 0 0.037 0 5.427-4.394 9.827-9.819 9.838h-12.070c-5.415-0.010-9.801-4.403-9.801-9.819 0-0.019 0-0.039 0-0.058v0.003-11.703c-16.616-3.083-29.031-17.465-29.031-34.747 0-0.32 0.004-0.639 0.013-0.957l-0.001 0.047c0-42.789 57.125-38.949 57.125-61.074-1.221-7.054-7.295-12.35-14.606-12.35-1.018 0-2.011 0.103-2.971 0.298l0.095-0.016c-16.75 0-22.162 13.531-30.629 13.531-7.062-1.612-12.252-7.839-12.252-15.279 0-0.029 0-0.057 0-0.086v0.004c0-10.057 13.897-19.931 32.256-22.857v-8.96c0-0.016 0-0.036 0-0.055 0-5.417 4.386-9.809 9.8-9.819h12.070c5.415 0.010 9.801 4.403 9.801 9.819 0 0.019 0 0.039 0 0.058v-0.003 11.52c14.471 5.394 24.591 19.095 24.591 35.16 0 0.69-0.019 1.375-0.055 2.055l0.004-0.095c-0.055 46.080-57.161 42.606-57.161 60.891zM296.448 832.183c0 5.669 5.23 10.971 18.030 10.971 9.191-1.278 17.504-3.713 25.253-7.183l-0.586 0.234c6.467 1.469 11.223 7.169 11.223 13.979 0 0.422-0.018 0.839-0.054 1.252l0.004-0.054c-2.585 8.659-10.477 14.864-19.819 14.864-0.516 0-1.027-0.019-1.534-0.056l0.068 0.004v10.606c0 0.016 0 0.036 0 0.055 0 5.423-4.396 9.819-9.819 9.819 0 0 0 0 0 0h-12.050c0 0 0 0 0 0-5.423 0-9.819-4.396-9.819-9.819 0-0.019 0-0.039 0-0.058v0.003-11.52c-16.63-3.239-29.010-17.69-29.010-35.032 0-0.284 0.003-0.567 0.010-0.85l-0.001 0.042c0-42.789 57.106-38.949 57.106-61.074-1.213-7.052-7.283-12.35-14.59-12.35-1.017 0-2.009 0.103-2.968 0.298l0.095-0.016c-16.768 0-22.162 13.531-30.629 13.531-7.072-1.613-12.27-7.848-12.27-15.297 0-0.022 0-0.044 0-0.066v0.003c0-10.057 13.897-19.931 32.256-22.857v-8.777c-0.001-0.060-0.002-0.13-0.002-0.201 0-5.431 4.393-9.836 9.82-9.856h12.052c5.431 0.030 9.821 4.439 9.821 9.874 0 0.064-0.001 0.129-0.002 0.193v-0.010 11.52c14.458 5.268 24.596 18.896 24.596 34.892 0 0.719-0.021 1.434-0.061 2.144l0.004-0.098c-0.073 46.080-57.198 42.606-57.198 60.891z" />
<glyph unicode="&#xe90c;" glyph-name="truck" horiz-adv-x="1638" d="M1523.712 525.824l-42.423 167.643c11.624 2.521 20.217 12.679 20.304 24.859v27.219c-0.529 58.768-48.293 106.205-107.136 106.205-0.217 0-0.435-0.001-0.652-0.002h-193.21v55.881c-0.165 28.959-23.68 52.372-52.662 52.372-0.134 0-0.268-0.001-0.402-0.002h-985.067c-0.105 0.001-0.228 0.001-0.352 0.001-28.982 0-52.497-23.412-52.662-52.356v-459.646c0-14.171 11.488-25.659 25.659-25.659s25.659 11.488 25.659 25.659v0 459.63c0.015 0.943 0.759 1.708 1.693 1.755h985.092c0.95-0.032 1.711-0.802 1.726-1.754v-459.631c0.481-13.793 11.778-24.792 25.644-24.792s25.163 10.999 25.643 24.748l0.001 0.044v28.672h302.753c0.102 0 0.223 0.001 0.343 0.001 36.784 0 68.020-23.752 79.209-56.756l0.173-0.589h-79.755c-0.026 0-0.057 0-0.088 0-14.081 0-25.504-11.382-25.57-25.448v-54.132c0.397-43.874 36.056-79.288 79.986-79.288 0.135 0 0.269 0 0.404 0.001h29.061v-111.47h-67.087c-23.261 63.567-83.228 108.117-153.6 108.117s-130.339-44.549-153.237-106.984l-0.363-1.132h-12.347v190.757c0 14.171-11.488 25.659-25.659 25.659s-25.659-11.488-25.659-25.659v0-190.757h-532.129c-23.261 63.567-83.228 108.117-153.6 108.117s-130.339-44.549-153.237-106.984l-0.363-1.132h-147.456c-0.028-0.002-0.061-0.003-0.095-0.003-0.889 0-1.609 0.72-1.609 1.609 0 0.052 0.003 0.104 0.007 0.156l-0.001-0.007v55.589h111.177c13.977 0 25.307 11.331 25.307 25.307s-11.331 25.307-25.307 25.307h-246.257c-13.977 0-25.307-11.331-25.307-25.307s11.331-25.307 25.307-25.307h83.792v-55.589c0.166-29.12 23.811-52.663 52.955-52.663 0.021 0 0.042 0 0.063 0h138.588c0-0.293 0-0.878 0-1.463 0-89.727 72.738-162.465 162.465-162.465s162.465 72.738 162.465 162.465v0c0 0.585 0 1.17 0 1.463h578.15c0-0.293 0-0.878 0-1.463 1.23-88.8 73.503-160.314 162.48-160.314s161.25 71.514 162.478 160.198l0.001 0.116c0 0.585 0 1.17 0 1.463h83.851c0.026 0 0.057 0 0.088 0 14.081 0 25.504 11.382 25.57 25.448v270.342c-0.421 66.926-49.778 122.199-114.066 131.858l-0.739 0.091zM1200.596 801.134h193.243c0.122 0.001 0.267 0.002 0.411 0.002 30.789 0 55.778-24.836 56.026-55.567v-1.778h-249.68v57.344zM1200.596 527.287v165.595h227.942l41.896-165.595h-269.839zM463.462-13.385c-60.105 0.743-108.544 49.641-108.544 109.853 0 60.674 49.186 109.861 109.861 109.861 60.62 0 109.773-49.098 109.86-109.698v-0.008c-0.431-60.848-49.857-110.008-110.765-110.008-0.145 0-0.29 0-0.435 0.001h0.022zM1366.484-13.385c-60.105 0.743-108.544 49.641-108.544 109.853 0 60.674 49.186 109.861 109.861 109.861 60.62 0 109.773-49.098 109.86-109.698v-0.008c-0.447-60.851-49.88-110.008-110.794-110.008-0.135 0-0.269 0-0.404 0.001h0.021zM1587.083 311.077h-29.052c-0.052 0-0.114-0.001-0.176-0.001-15.882 0-28.773 12.809-28.905 28.66v28.978h58.134v-57.637zM463.609 148.992c-28.645-0.363-51.727-23.669-51.727-52.366 0-28.923 23.447-52.37 52.37-52.37s52.368 23.445 52.37 52.366v0c-0.297 28.987-23.865 52.371-52.894 52.371-0.093 0-0.187 0-0.28-0.001h0.014zM1366.63 148.992c-28.645-0.363-51.727-23.669-51.727-52.366 0-28.923 23.447-52.37 52.37-52.37s52.368 23.445 52.37 52.366v0c-0.297 28.987-23.865 52.371-52.894 52.371-0.093 0-0.187 0-0.28-0.001h0.014zM1065.604 256.951h-383.21c-13.977 0-25.307-11.331-25.307-25.307s11.331-25.307 25.307-25.307h383.064c13.977 0 25.307 11.331 25.307 25.307s-11.331 25.307-25.307 25.307c0 0 0 0 0 0v0zM408.898 365.202h-328.528c-13.977 0-25.307-11.331-25.307-25.307s11.331-25.307 25.307-25.307h328.382c13.977 0 25.307 11.331 25.307 25.307s-11.331 25.307-25.307 25.307c0 0 0 0 0 0v0zM892.197 709.266c-4.651 4.611-11.055 7.461-18.125 7.461s-13.474-2.849-18.127-7.462l0.002 0.002-228.206-225.28-118.667 117.029c-4.656 4.613-11.065 7.463-18.139 7.463s-13.484-2.85-18.141-7.465l0.002 0.002c-4.644-4.532-7.525-10.853-7.525-17.847s2.88-13.315 7.519-17.842l0.005-0.005 136.806-135.168c4.616-4.698 11.038-7.61 18.139-7.61s13.523 2.912 18.136 7.606l0.004 0.004 246.257 243.127c4.62 4.582 7.48 10.932 7.48 17.95 0 7.061-2.895 13.446-7.564 18.033l-0.004 0.004z" />
<glyph unicode="&#xe90d;" glyph-name="checkmark-outline" d="M150.016 98.816c-96.436 93.233-156.308 223.762-156.308 368.276 0 282.77 229.23 512 512 512 144.514 0 275.043-59.872 368.137-156.164l0.138-0.144c88.925-91.979 143.724-217.436 143.724-355.692 0-282.77-229.23-512-512-512-138.256 0-263.713 54.799-355.836 143.863l0.144-0.138zM801.792 171.008c74.164 74.164 120.036 176.621 120.036 289.792 0 226.342-183.486 409.828-409.828 409.828-113.171 0-215.628-45.872-289.792-120.036v0c-74.164-74.164-120.036-176.621-120.036-289.792 0-226.342 183.486-409.828 409.828-409.828 113.171 0 215.628 45.872 289.792 120.036v0zM343.040 497.152l117.76-118.272 220.16 220.16 71.68-72.704-291.84-290.816-189.44 189.44 71.68 72.704z" />
<glyph unicode="&#xe90e;" glyph-name="reload" horiz-adv-x="1170" d="M664.869 960c-279.741-2.069-505.717-229.322-505.717-509.354 0-0.931 0.002-1.86 0.007-2.79l-0.001 0.144v-1.682l-100.059 152.576c-5.798 8.852-15.669 14.618-26.887 14.618-6.637 0-12.802-2.018-17.916-5.474l0.113 0.072c-8.749-6.005-14.414-15.952-14.414-27.223 0-6.687 1.994-12.909 5.421-18.103l-0.076 0.123 145.262-221.33c5.132-7.68 13.289-12.994 22.729-14.245l0.165-0.018c0.613-0.052 1.327-0.082 2.048-0.082s1.435 0.030 2.14 0.088l-0.092-0.006c0.005 0 0.011 0 0.016 0 8.317 0 15.88 3.228 21.505 8.501l-0.017-0.016 201.801 184.027c6.561 6.060 10.656 14.708 10.656 24.311 0 8.389-3.124 16.048-8.273 21.877l0.031-0.036c-5.922 6.64-14.502 10.801-24.053 10.801-8.32 0-15.902-3.157-21.615-8.338l0.027 0.024-133.998-122.661v2.194c3.137 241.224 199.418 435.566 441.090 435.566 243.626 0 441.125-197.498 441.125-441.125 0-243.588-197.436-441.063-441.010-441.125h-0.006c-0.249-0.001-0.543-0.001-0.837-0.001-121.794 0-231.891 50.081-310.82 130.774l-0.077 0.079c-5.797 5.934-13.879 9.614-22.821 9.614s-17.024-3.68-22.815-9.608l-0.006-0.006c-5.861-5.94-9.481-14.104-9.481-23.113s3.62-17.173 9.484-23.117l-0.004 0.004c90.588-92.558 216.794-149.944 356.403-149.944 0.342 0 0.684 0 1.026 0.001h-0.053c282.77 0 512 229.23 512 512s-229.23 512-512 512v0z" />
<glyph unicode="&#xe90f;" glyph-name="dollar-sign" d="M469.333 469.334h-64c-29.483 0-56.064 11.904-75.435 31.232s-31.232 45.952-31.232 75.435 11.904 56.064 31.232 75.435 45.952 31.232 75.435 31.232h64zM554.667 384h64c29.483 0 56.064-11.904 75.435-31.232s31.232-45.952 31.232-75.435-11.904-56.064-31.232-75.435-45.952-31.232-75.435-31.232h-64zM725.333 768h-170.667v128c0 23.552-19.115 42.667-42.667 42.667s-42.667-19.115-42.667-42.667v-128h-64c-52.992 0-101.077-21.547-135.765-56.235s-56.235-82.773-56.235-135.765 21.547-101.077 56.235-135.765 82.773-56.235 135.765-56.235h64v-213.333h-213.333c-23.552 0-42.667-19.115-42.667-42.667s19.115-42.667 42.667-42.667h213.333v-128c0-23.552 19.115-42.667 42.667-42.667s42.667 19.115 42.667 42.667v128h64c52.992 0 101.077 21.547 135.765 56.235s56.235 82.773 56.235 135.765-21.547 101.077-56.235 135.765-82.773 56.235-135.765 56.235h-64v213.333h170.667c23.552 0 42.667 19.115 42.667 42.667s-19.115 42.667-42.667 42.667z" />
<glyph unicode="&#xea0f;" glyph-name="cross" d="M1014.662 137.34c-0.004 0.004-0.008 0.008-0.012 0.010l-310.644 310.65 310.644 310.65c0.004 0.004 0.008 0.006 0.012 0.010 3.344 3.346 5.762 7.254 7.312 11.416 4.246 11.376 1.824 24.682-7.324 33.83l-146.746 146.746c-9.148 9.146-22.45 11.566-33.828 7.32-4.16-1.55-8.070-3.968-11.418-7.31 0-0.004-0.004-0.006-0.008-0.010l-310.648-310.652-310.648 310.65c-0.004 0.004-0.006 0.006-0.010 0.010-3.346 3.342-7.254 5.76-11.414 7.31-11.38 4.248-24.682 1.826-33.83-7.32l-146.748-146.748c-9.148-9.148-11.568-22.452-7.322-33.828 1.552-4.16 3.97-8.072 7.312-11.416 0.004-0.002 0.006-0.006 0.010-0.010l310.65-310.648-310.65-310.652c-0.002-0.004-0.006-0.006-0.008-0.010-3.342-3.346-5.76-7.254-7.314-11.414-4.248-11.376-1.826-24.682 7.322-33.83l146.748-146.746c9.15-9.148 22.452-11.568 33.83-7.322 4.16 1.552 8.070 3.97 11.416 7.312 0.002 0.004 0.006 0.006 0.010 0.010l310.648 310.65 310.648-310.65c0.004-0.002 0.008-0.006 0.012-0.008 3.348-3.344 7.254-5.762 11.414-7.314 11.378-4.246 24.684-1.826 33.828 7.322l146.746 146.748c9.148 9.148 11.57 22.454 7.324 33.83-1.552 4.16-3.97 8.068-7.314 11.414z" />
<glyph unicode="&#xea10;" glyph-name="checkmark" d="M864 832l-480-480-224 224-160-160 384-384 640 640z" />
<glyph unicode="&#xea52;" glyph-name="checkbox-checked" d="M896 960h-768c-70.4 0-128-57.6-128-128v-768c0-70.4 57.6-128 128-128h768c70.4 0 128 57.6 128 128v768c0 70.4-57.6 128-128 128zM448 165.49l-237.254 237.256 90.51 90.508 146.744-146.744 306.746 306.746 90.508-90.51-397.254-397.256z" />
<glyph unicode="&#xea53;" glyph-name="checkbox-unchecked" d="M896 960h-768c-70.4 0-128-57.6-128-128v-768c0-70.4 57.6-128 128-128h768c70.4 0 128 57.6 128 128v768c0 70.4-57.6 128-128 128zM896 64h-768v768h768v-768z" />
<glyph unicode="&#xea90;" glyph-name="facebook" d="M608 768h160v192h-160c-123.514 0-224-100.486-224-224v-96h-128v-192h128v-512h192v512h160l32 192h-192v96c0 17.346 14.654 32 32 32z" />
<glyph unicode="&#xea92;" glyph-name="instagram" d="M512 867.8c136.8 0 153-0.6 206.8-3 50-2.2 77-10.6 95-17.6 23.8-9.2 41-20.4 58.8-38.2 18-18 29-35 38.4-58.8 7-18 15.4-45.2 17.6-95 2.4-54 3-70.2 3-206.8s-0.6-153-3-206.8c-2.2-50-10.6-77-17.6-95-9.2-23.8-20.4-41-38.2-58.8-18-18-35-29-58.8-38.4-18-7-45.2-15.4-95-17.6-54-2.4-70.2-3-206.8-3s-153 0.6-206.8 3c-50 2.2-77 10.6-95 17.6-23.8 9.2-41 20.4-58.8 38.2-18 18-29 35-38.4 58.8-7 18-15.4 45.2-17.6 95-2.4 54-3 70.2-3 206.8s0.6 153 3 206.8c2.2 50 10.6 77 17.6 95 9.2 23.8 20.4 41 38.2 58.8 18 18 35 29 58.8 38.4 18 7 45.2 15.4 95 17.6 53.8 2.4 70 3 206.8 3zM512 960c-139 0-156.4-0.6-211-3-54.4-2.4-91.8-11.2-124.2-23.8-33.8-13.2-62.4-30.6-90.8-59.2-28.6-28.4-46-57-59.2-90.6-12.6-32.6-21.4-69.8-23.8-124.2-2.4-54.8-3-72.2-3-211.2s0.6-156.4 3-211c2.4-54.4 11.2-91.8 23.8-124.2 13.2-33.8 30.6-62.4 59.2-90.8 28.4-28.4 57-46 90.6-59 32.6-12.6 69.8-21.4 124.2-23.8 54.6-2.4 72-3 211-3s156.4 0.6 211 3c54.4 2.4 91.8 11.2 124.2 23.8 33.6 13 62.2 30.6 90.6 59s46 57 59 90.6c12.6 32.6 21.4 69.8 23.8 124.2 2.4 54.6 3 72 3 211s-0.6 156.4-3 211c-2.4 54.4-11.2 91.8-23.8 124.2-12.6 34-30 62.6-58.6 91-28.4 28.4-57 46-90.6 59-32.6 12.6-69.8 21.4-124.2 23.8-54.8 2.6-72.2 3.2-211.2 3.2v0zM512 711c-145.2 0-263-117.8-263-263s117.8-263 263-263 263 117.8 263 263c0 145.2-117.8 263-263 263zM512 277.4c-94.2 0-170.6 76.4-170.6 170.6s76.4 170.6 170.6 170.6c94.2 0 170.6-76.4 170.6-170.6s-76.4-170.6-170.6-170.6zM846.8 721.4c0-33.91-27.49-61.4-61.4-61.4s-61.4 27.49-61.4 61.4c0 33.91 27.49 61.4 61.4 61.4s61.4-27.49 61.4-61.4z" />
<glyph unicode="&#xea96;" glyph-name="twitter" d="M1024 733.6c-37.6-16.8-78.2-28-120.6-33 43.4 26 76.6 67.2 92.4 116.2-40.6-24-85.6-41.6-133.4-51-38.4 40.8-93 66.2-153.4 66.2-116 0-210-94-210-210 0-16.4 1.8-32.4 5.4-47.8-174.6 8.8-329.4 92.4-433 219.6-18-31-28.4-67.2-28.4-105.6 0-72.8 37-137.2 93.4-174.8-34.4 1-66.8 10.6-95.2 26.2 0-0.8 0-1.8 0-2.6 0-101.8 72.4-186.8 168.6-206-17.6-4.8-36.2-7.4-55.4-7.4-13.6 0-26.6 1.4-39.6 3.8 26.8-83.4 104.4-144.2 196.2-146-72-56.4-162.4-90-261-90-17 0-33.6 1-50.2 3 93.2-59.8 203.6-94.4 322.2-94.4 386.4 0 597.8 320.2 597.8 597.8 0 9.2-0.2 18.2-0.6 27.2 41 29.4 76.6 66.4 104.8 108.6z" />
</font>
</defs>
</svg>
